<?xml version="1.0" encoding="iso-8859-1"?>
<!-- Generator: Adobe Illustrator 19.0.0, SVG Export Plug-In . SVG Version: 6.00 Build 0)  -->
<svg version="1.1" id="Capa_1" xmlns="http://www.w3.org/2000/svg" xmlns:xlink="http://www.w3.org/1999/xlink" x="0px" y="0px"
	 viewBox="0 0 496 496" style="enable-background:new 0 0 496 496;" xml:space="preserve">
<g>
	<g>
		<g>
			<path fill="#ffffff" d="M464,96v-9.536l-29.6-73.992C431.384,4.896,424.16,0,416,0c-8.16,0-15.384,4.896-18.4,12.472L368,86.464V96H143.528
				C139.536,60.056,109,32,72,32C32.296,32,0,64.304,0,104v320c0,39.696,32.296,72,72,72h424V96H464z M412.464,18.4v-0.008
				c1.16-2.904,5.92-2.92,7.08,0.008L444.192,80h-56.368L412.464,18.4z M448,96v168h-24V96H448z M384,96h24v168h-24V96z M384,280h64
				v32c0,4.408-3.584,8-8,8h-48c-4.416,0-8-3.592-8-8V280z M144,351.384c7.04-1.016,13.848-3.32,20.008-6.88l-8.016-13.848
				c-3.72,2.152-7.792,3.6-11.992,4.456v-78.304c18.232,3.72,32,19.872,32,39.192c0,9.424-3.344,18.576-9.416,25.776l12.232,10.312
				C187.32,322.008,192,309.192,192,296c0-28.152-20.912-51.456-48-55.36v-16.168c35.944,4,64,34.536,64,71.528
				s-28.056,67.536-64,71.528V351.384z M144,424v-40.408c44.784-4.056,80-41.768,80-87.592c0-45.824-35.216-83.536-80-87.592V144h16
				v34.392l6,1.552c10.872,2.808,21.248,7.104,30.848,12.768l5.344,3.16l24.312-24.32l33.944,33.944l-24.312,24.312l3.152,5.336
				c5.664,9.6,9.96,19.976,12.768,30.856l1.552,6H288v48h-34.392l-1.552,6c-2.808,10.88-7.104,21.256-12.768,30.856l-3.152,5.336
				l24.312,24.312l-33.944,33.944l-24.312-24.32l-5.344,3.16c-9.6,5.664-19.976,9.968-30.848,12.768l-6,1.552V448h-20.2
				C142.472,440.48,144,432.424,144,424z M16,104c0-30.88,25.128-56,56-56s56,25.12,56,56v274.848
				C114.792,362.496,94.608,352,72,352c-22.608,0-42.792,10.496-56,26.848V104z M72,480c-30.872,0-56-25.12-56-56s25.128-56,56-56
				s56,25.12,56,56S102.872,480,72,480z M480,480H117.152c5.656-4.568,10.616-9.952,14.672-16H176v-38.144
				c8.16-2.504,16.04-5.768,23.544-9.744l26.96,26.968l56.568-56.568l-26.96-26.968c3.968-7.504,7.232-15.384,9.736-23.544H304v-80
				h-38.152c-2.496-8.16-5.768-16.04-9.736-23.544l26.96-26.968l-56.568-56.568l-26.96,26.968
				c-7.504-3.976-15.392-7.24-23.544-9.744V128h-32v-16h224v200c0,13.232,10.768,24,24,24h48c13.232,0,24-10.768,24-24V112h16V480z"
				/>
			<path fill="#ffffff" d="M304,464h160V352H304V464z M320,368h128v80H320V368z"/>
			<rect fill="#ffffff" x="368" y="384" width="64" height="16"/>
			<rect fill="#ffffff" x="336" y="384" width="16" height="16"/>
			<rect fill="#ffffff" x="336" y="416" width="64" height="16"/>
			<rect fill="#ffffff"  x="416" y="416" width="16" height="16"/>
			<path fill="#ffffff" d="M72,384c-22.056,0-40,17.944-40,40c0,22.056,17.944,40,40,40v-16c-13.232,0-24-10.768-24-24s10.768-24,24-24
				s24,10.768,24,24h16C112,401.944,94.056,384,72,384z"/>
		</g>
	</g>
</g>
<g>
</g>
<g>
</g>
<g>
</g>
<g>
</g>
<g>
</g>
<g>
</g>
<g>
</g>
<g>
</g>
<g>
</g>
<g>
</g>
<g>
</g>
<g>
</g>
<g>
</g>
<g>
</g>
<g>
</g>
</svg>
